# xmcd CD database file
#
# Track frame offsets:
#	150
#	20644
#	38832
#	56669
#	76077
#	96880
#	123302
#	140826
#	165205
#	185430
#	203888
#	224534
#	247428
#	267497
#
# Disc length: 3888 seconds
#
# Revision: 0
# Processed by: cddbd v1.5.1PL2 Copyright (c) Steve Scherf et al.
# Submitted via: CDex 1.51
#
DISCID=d00f2e0e
DTITLE=Dixie Chicks - Taking the long way home
DYEAR=2006
DGENRE=Country
TTITLE0=The Long Way Around
TTITLE1=Easy Silence
TTITLE2=Not Ready to Make Nice
TTITLE3=Everybody Knows
TTITLE4=Bitter End
TTITLE5=Lullaby
TTITLE6=Lubbock or Leave it
TTITLE7=Silent House
TTITLE8=Favorite Year
TTITLE9=Voice Inside My Head
TTITLE10=I Like it
TTITLE11=Baby Hold on
TTITLE12=So Hard
TTITLE13=I Hope
EXTD=YEAR: 2006
EXTT0=
EXTT1=
EXTT2=
EXTT3=
EXTT4=
EXTT5=
EXTT6=
EXTT7=
EXTT8=
EXTT9=
EXTT10=
EXTT11=
EXTT12=
EXTT13=
PLAYORDER=
